<?xml version="1.0" encoding="UTF-8" standalone="no"?>
<svg id="svg4224" xmlns:rdf="http://www.w3.org/1999/02/22-rdf-syntax-ns#" xmlns="http://www.w3.org/2000/svg" height="287mm" width="217.9mm" version="1.1" xmlns:cc="http://creativecommons.org/ns#" xmlns:dc="http://purl.org/dc/elements/1.1/" viewBox="0 0 772.09076 1016.931">
<g id="layer1" transform="translate(8.9025 -12.468)">
<g id="g4197" transform="matrix(.097585 0 0 .097585 -545.62 -267.21)">
<path id="path17" class="fil2" fill="#1a1617" d="m7759 8867c-19 15-47 21-119 46-378 131-754 286-1128 469-236 115-213 73-315 312-263 612-513 1252-697 1867 619 667 1405 1177 2291 1464 333 90 679 164 1032 225 190 22 384 35 580 37h121c191-3 379-15 565-37 352-61 699-135 1032-225 886-287 1671-797 2291-1464-184-615-434-1255-697-1867-102-239-79-197-316-312-373-183-749-338-1127-469-51-18-79-26-99-34l-5-12c-72-124-157-239-254-347 459 32 832-82 1066-365 226-275 239-479 251-812 23-653-27-1355-207-2009-175-639-473-1232-946-1688-453-436-982-780-1622-780-451 0-842 83-1118 520-272-35-420 86-601 260-473 456-771 1049-946 1688-180 654-230 1356-207 2009 12 333 24 537 251 812 250 303 660 412 1163 357h6c-93 106-174 225-245 355z"/>
<path id="path19" class="fil3" fill="#3d3d3d" d="m7998 8513c99-106 217-205 349-299l69-320c-239-278-419-650-509-1075-181 4-372-207-446-509-60-240-64-434 3-557 114-209 318-79 399 76 75-634 344-1178 721-1512 273 308 596 563 1021 610 813 90 1243 379 1439 859 92-134 269-222 373-33 66 123 62 317 3 557-70 284-243 488-414 507-88 411-258 772-485 1047l-5 30 73 337c114 77 228 174 320 291 461 33 836-81 1071-365 226-275 239-479 251-812 23-653-27-1356-207-2010-175-639-473-1232-946-1687-453-436-982-781-1622-781-451 0-842 84-1118 520-272-35-420 87-601 261-473 455-771 1048-946 1687-180 654-230 1357-207 2010 12 333 24 537 251 812 250 303 660 412 1163 356z"/>
<path id="path21" class="fil4" fill="#f6d5b8" d="m11044 5786c92-134 269-222 373-33 66 123 62 317 3 557-70 284-243 488-414 507-88 411-258 772-485 1047l-5 30 70 321-6-1c6 19 12 37 17 55l3 11c24 88 47 181 67 280 139 797-146 1543-482 2316-186 198-465 351-719 340-258 11-543-147-728-351-313-719-580-1416-500-2153 24-155 58-301 95-432l14-66 69-320c-239-278-419-650-509-1075-181 4-372-207-446-509-60-240-64-434 3-557 114-209 318-79 399 76 75-634 344-1178 721-1512 273 308 596 563 1021 610 813 90 1243 379 1439 859z"/>
<g fill="#e6c6aa">
<path id="path23" class="fil5" d="m7893 6751c-36-166-55-334-59-503-3-109 1-217 11-326-9-12-18-24-29-36-34-37-96-85-152-81-42 4-69 38-86 70-71 128-24 343 14 474 33 112 91 228 176 314 33 34 77 68 125 88zm3116 0c36-166 55-334 59-503 3-109-1-217-11-326 9-12 18-24 29-36 34-37 96-85 152-81 42 4 69 38 87 70 70 128 23 343-15 474-33 112-91 228-176 314-33 34-76 68-125 88z"/>
<path id="path25" class="fil5" d="m8416 7894zm2170 321-70-321 5-30c-284 344-657 553-1065 553-396 0-759-197-1040-523l-20 91c117 158 251 283 400 381 201 131 428 213 676 258 257 47 536 54 829 36 76-5 64-18 84 57 243 953-171 2507-1638 2158 185 199 465 352 719 341 254 11 533-142 719-340 364-838 703-1746 401-2661z"/>
<path id="path27" class="fil5" d="m11044 5786c-196-480-626-769-1439-859-425-47-748-302-1021-610-377 334-646 878-721 1511 217-448 388-962 710-1278 418 989 1839 369 2471 1236z"/>
</g>
<path id="path29" class="fil6" fill="#383032" d="m11168 8867c50 109 93 221 127 336s59 234 74 356c4 34 9 53 8 71 0 17-7 34-26 62-38 58-83 111-136 162-53 50-113 97-179 142l238 254 239 254-1025 1308-1024 1308-1025-1308-1025-1308 239-254 238-254c-66-45-126-92-179-142-52-51-98-104-136-162-19-28-26-45-26-62-1-18 4-37 8-71 15-122 40-241 74-356s77-227 127-336c74-135 158-258 256-368 97-110 207-205 332-285-263 796-67 1534 236 2284 303 751 714 1515 881 2365 166-850 578-1614 883-2364 305-751 502-1488 239-2284 122 94 231 194 328 303 97 108 182 224 254 349z"/>
<path id="path31" class="fil7" fill="#fff" d="m9464 12863c138-708 446-1356 721-1987-186 198-465 351-719 340-254 11-534-142-719-341-3-3-6-7-9-10 275 634 586 1286 726 1998z"/>
</g>
</g>
</svg>
